<?xml version="1.0" encoding="iso-8859-1"?>
<!-- Uploaded to: SVG Repo, www.svgrepo.com, Generator: SVG Repo Mixer Tools -->
<svg fill="#000000" height="800px" width="800px" version="1.1" id="Layer_1" xmlns="http://www.w3.org/2000/svg" xmlns:xlink="http://www.w3.org/1999/xlink" 
	 viewBox="0 0 511.996 511.996" xml:space="preserve">
<g>
	<g>
		<path d="M104.723,209.419c-19.247,0-34.909,15.663-34.909,34.909s15.663,34.909,34.909,34.909
			c19.247,0,34.909-15.663,34.909-34.909S123.97,209.419,104.723,209.419z M104.723,255.976c-6.412,0-11.636-5.213-11.636-11.636
			c0-6.423,5.225-11.636,11.636-11.636s11.636,5.213,11.636,11.636C116.359,250.763,111.135,255.976,104.723,255.976z"/>
	</g>
</g>
<g>
	<g>
		<path d="M185.014,181.084c-2.793-5.795-9.751-8.192-15.535-5.423c-5.783,2.793-8.215,9.751-5.411,15.535
			c13.905,28.8,13.905,77.463,0,106.263c-2.793,5.783-0.372,12.742,5.411,15.535c1.641,0.78,3.363,1.164,5.062,1.164
			c4.329,0,8.483-2.42,10.484-6.586C202.143,272.115,202.143,216.54,185.014,181.084z"/>
	</g>
</g>
<g>
	<g>
		<path d="M329.724,88.319c-62.15-22.039-131.759-24.471-195.456-6.865c-17.804,4.922-28.707,22.947-24.844,41.042l1.385,6.47
			c1.129,5.283-1.455,10.554-6.295,12.823c-40.832,19.072-74.892,47.732-98.49,82.897c-8.006,11.939-8.029,27.311-0.081,39.18
			c32.303,48.198,84.899,84.201,145.338,99.759v43.648c0,6.423-5.225,11.636-11.636,11.636h-23.273
			c-6.423,0-11.636,5.201-11.636,11.636s5.213,11.636,11.636,11.636h23.273c19.247,0,34.909-15.663,34.909-34.909v-52.841
			c-0.012-5.469-3.805-10.182-9.146-11.369c-58.449-12.893-109.533-46.487-140.148-92.16c-2.665-3.991-2.641-9.193,0.07-13.242
			c21.248-31.651,52.026-57.507,89.018-74.787c14.72-6.889,22.609-22.831,19.2-38.784l-1.385-6.47
			c-1.303-6.074,2.339-12.102,8.273-13.743c59.136-16.337,123.823-14.08,181.516,6.377c6.063,2.141,12.695-1.024,14.848-7.075
			C338.951,97.116,335.786,90.472,329.724,88.319z"/>
	</g>
</g>
<g>
	<g>
		<path d="M495.914,244.339c9.775-8.541,16.081-20.945,16.081-34.921v-58.193c0-6.435-5.213-11.636-11.636-11.636
			c-35.095,0-64.989,28.742-76.416,68.841c-46.673-57.216-122.449-92.113-202.857-92.113c-16.628,0-33.28,1.455-49.478,4.329
			c-6.33,1.117-10.554,7.156-9.437,13.487c1.129,6.319,7.133,10.566,13.487,9.425c14.871-2.63,30.15-3.968,45.417-3.968
			c80.198,0,155.229,37.62,195.817,98.188c2.665,3.98,2.665,9.135,0,13.126c-40.588,60.556-115.619,98.176-195.817,98.176
			c-3.724,0-7.436-0.081-11.113-0.244c-6.179-0.303-11.857,4.678-12.137,11.113c-0.279,6.423,4.689,11.857,11.113,12.137
			c4.026,0.186,8.076,0.256,12.148,0.256c19.805,0,39.296-2.223,58.182-6.26v41.193c0,6.423-5.225,11.636-11.636,11.636h-23.273
			c-6.423,0-11.636,5.201-11.636,11.636s5.213,11.636,11.636,11.636h23.273c19.247,0,34.909-15.663,34.909-34.909l0.012-47.151
			c48.326-14.836,91.008-42.624,121.391-79.872c11.439,40.099,41.321,68.829,76.416,68.829c6.423,0,11.636-5.201,11.636-11.636
			v-58.193C511.996,265.273,505.689,252.869,495.914,244.339z M488.723,324.153c-23.855-6.807-42.38-34.141-45.882-68.189h22.609
			c12.835,0.012,23.273,10.449,23.273,23.284V324.153z M488.723,209.407c0,12.835-10.438,23.273-23.273,23.273h-22.608
			c3.505-34.031,22.029-61.371,45.881-68.177V209.407z"/>
	</g>
</g>
</svg>